<svg xmlns="http://www.w3.org/2000/svg" xmlns:xlink="http://www.w3.org/1999/xlink" version="1.1" width="1000" height="1000" viewBox="0 0 1000 1000" xml:space="preserve">
<desc>Created with Fabric.js 3.5.0</desc>
<defs>
</defs>
<rect x="0" y="0" width="100%" height="100%" fill="rgba(0,0,0,0)"/>
<g transform="matrix(0.7141 0 0 0.707 446.4368 487.4238)" id="729050">
<filter id="SVGID_450" y="-28.67%" height="157.34%" x="-23.25%" width="146.5%">
	<feGaussianBlur in="SourceAlpha" stdDeviation="6"/>
	<feOffset dx="1" dy="1" result="oBlur"/>
	<feFlood flood-color="rgb(0,0,0)" flood-opacity="1"/>
	<feComposite in2="oBlur" operator="in"/>
	<feMerge>
		<feMergeNode/>
		<feMergeNode in="SourceGraphic"/>
	</feMerge>
</filter>
<rect style="stroke: none; stroke-width: 0; stroke-dasharray: none; stroke-linecap: butt; stroke-dashoffset: 0; stroke-linejoin: miter; stroke-miterlimit: 4; is-custom-font: none; font-file-url: none; fill: rgb(255,255,255); fill-opacity: 0.95; fill-rule: nonzero; opacity: 0.85;filter: url(#SVGID_450);" vector-effect="non-scaling-stroke" x="-200" y="-75" rx="20" ry="20" width="400" height="150"/>
</g>
<g transform="matrix(0.7202 0 0 0.7209 448.1228 489.9663)" id="970739">
<filter id="SVGID_451" y="-30.67%" height="161.34%" x="-24%" width="148%">
	<feGaussianBlur in="SourceAlpha" stdDeviation="4"/>
	<feOffset dx="8" dy="8" result="oBlur"/>
	<feFlood flood-color="rgb(0,0,0)" flood-opacity="0.54"/>
	<feComposite in2="oBlur" operator="in"/>
	<feMerge>
		<feMergeNode/>
		<feMergeNode in="SourceGraphic"/>
	</feMerge>
</filter>
<rect style="stroke: rgb(0,0,0); stroke-opacity: 0.7; stroke-width: 3; stroke-dasharray: none; stroke-linecap: butt; stroke-dashoffset: 0; stroke-linejoin: miter; stroke-miterlimit: 4; is-custom-font: none; font-file-url: none; fill: rgb(151,151,151); fill-opacity: 0.49; fill-rule: nonzero; opacity: 0.48;filter: url(#SVGID_451);" vector-effect="non-scaling-stroke" x="-200" y="-75" rx="20" ry="20" width="400" height="150"/>
</g>
<g transform="matrix(3.8126 0 0 3.8126 356.0787 488.975)" id="286949">
<filter id="SVGID_452" y="-35%" height="170%" x="-35%" width="170%">
	<feGaussianBlur in="SourceAlpha" stdDeviation="1"/>
	<feOffset dx="1" dy="1" result="oBlur"/>
	<feFlood flood-color="rgb(4,4,4)" flood-opacity="1"/>
	<feComposite in2="oBlur" operator="in"/>
	<feMerge>
		<feMergeNode/>
		<feMergeNode in="SourceGraphic"/>
	</feMerge>
</filter>
<path style="stroke: rgb(0,0,0); stroke-opacity: 0.56; stroke-width: 1; stroke-dasharray: none; stroke-linecap: butt; stroke-dashoffset: 0; stroke-linejoin: miter; stroke-miterlimit: 4; is-custom-font: none; font-file-url: none; fill: rgb(155,149,149); fill-opacity: 0.56; fill-rule: evenodd; opacity: 0.63;filter: url(#SVGID_452);" vector-effect="non-scaling-stroke" transform=" translate(-10, -10)" d="M 10 0 C 4.5 0 0 4.5 0 10 C 0 15.5 4.5 20 10 20 C 15.5 20 20 15.5 20 10 C 20 4.5 15.5 0 10 0 L 10 0 Z M 10 18 C 5.6 18 2 14.4 2 10 C 2 5.6 5.6 2 10 2 C 14.4 2 18 5.6 18 10 C 18 14.4 14.4 18 10 18 L 10 18 Z" stroke-linecap="round"/>
</g>
<g transform="matrix(3.744 0 0 3.744 356.069 489.3228)" id="462132">
<filter id="SVGID_453" y="-30%" height="160%" x="-30%" width="160%">
	<feGaussianBlur in="SourceAlpha" stdDeviation="1"/>
	<feOffset dx="0" dy="0" result="oBlur"/>
	<feFlood flood-color="rgb(4,4,4)" flood-opacity="1"/>
	<feComposite in2="oBlur" operator="in"/>
	<feMerge>
		<feMergeNode/>
		<feMergeNode in="SourceGraphic"/>
	</feMerge>
</filter>
<path style="stroke: rgb(0,0,0); stroke-opacity: 0.94; stroke-width: 3; stroke-dasharray: none; stroke-linecap: butt; stroke-dashoffset: 0; stroke-linejoin: miter; stroke-miterlimit: 4; is-custom-font: none; font-file-url: none; fill: rgb(46,46,46); fill-opacity: 0.49; fill-rule: evenodd; opacity: 0.41;filter: url(#SVGID_453);" vector-effect="non-scaling-stroke" transform=" translate(-10, -10)" d="M 10 0 C 4.5 0 0 4.5 0 10 C 0 15.5 4.5 20 10 20 C 15.5 20 20 15.5 20 10 C 20 4.5 15.5 0 10 0 L 10 0 Z M 10 18 C 5.6 18 2 14.4 2 10 C 2 5.6 5.6 2 10 2 C 14.4 2 18 5.6 18 10 C 18 14.4 14.4 18 10 18 L 10 18 Z" stroke-linecap="round"/>
</g>
<g transform="matrix(0.1384 0 0 0.1393 362.9907 482.9259)" id="159294">
<filter id="SVGID_454" y="-21.87%" height="143.74%" x="-21.34%" width="142.68%">
	<feGaussianBlur in="SourceAlpha" stdDeviation="2"/>
	<feOffset dx="2" dy="2" result="oBlur"/>
	<feFlood flood-color="rgb(0,0,0)" flood-opacity="1"/>
	<feComposite in2="oBlur" operator="in"/>
	<feMerge>
		<feMergeNode/>
		<feMergeNode in="SourceGraphic"/>
	</feMerge>
</filter>
<path style="stroke: rgb(0,0,0); stroke-width: 3; stroke-dasharray: none; stroke-linecap: butt; stroke-dashoffset: 0; stroke-linejoin: miter; stroke-miterlimit: 4; is-custom-font: none; font-file-url: none; fill: rgb(22,130,2); fill-rule: nonzero; opacity: 0;filter: url(#SVGID_454);" vector-effect="non-scaling-stroke" transform=" translate(-256, -256)" d="M 480 128 c 0 8.188 -3.125 16.38 -9.375 22.62 l -256 256 C 208.4 412.9 200.2 416 192 416 s -16.38 -3.125 -22.62 -9.375 l -128 -128 C 35.13 272.4 32 264.2 32 256 c 0 -18.28 14.95 -32 32 -32 c 8.188 0 16.38 3.125 22.62 9.375 L 192 338.8 l 233.4 -233.4 C 431.6 99.13 439.8 96 448 96 C 465.1 96 480 109.7 480 128 z" stroke-linecap="round"/>
</g>
</svg>