<svg xmlns="http://www.w3.org/2000/svg" xmlns:xlink="http://www.w3.org/1999/xlink" version="1.1" width="1000" height="1000" viewBox="0 0 1000 1000" xml:space="preserve">
<desc>Created with Fabric.js 3.5.0</desc>
<defs>
</defs>
<rect x="0" y="0" width="100%" height="100%" fill="rgba(0,0,0,0)"/>
<g transform="matrix(0.724 0 0 0.7402 448.4654 487.9325)" id="729050">
<filter id="SVGID_622" y="-26%" height="152%" x="-22.25%" width="144.5%">
	<feGaussianBlur in="SourceAlpha" stdDeviation="4"/>
	<feOffset dx="1" dy="1" result="oBlur"/>
	<feFlood flood-color="rgb(0,0,0)" flood-opacity="1"/>
	<feComposite in2="oBlur" operator="in"/>
	<feMerge>
		<feMergeNode/>
		<feMergeNode in="SourceGraphic"/>
	</feMerge>
</filter>
<rect style="stroke: rgb(0,0,0); stroke-width: 4; stroke-dasharray: none; stroke-linecap: butt; stroke-dashoffset: 0; stroke-linejoin: miter; stroke-miterlimit: 4; is-custom-font: none; font-file-url: none; fill: rgb(255,255,255); fill-rule: nonzero; opacity: 0.56;filter: url(#SVGID_622);" vector-effect="non-scaling-stroke" x="-200" y="-75" rx="20" ry="20" width="400" height="150"/>
</g>
<g transform="matrix(0.7161 0 0 0.7133 445.1986 485.4431)" id="970739">
<filter id="SVGID_623" y="-26%" height="152%" x="-22.25%" width="144.5%">
	<feGaussianBlur in="SourceAlpha" stdDeviation="1.5"/>
	<feOffset dx="6" dy="6" result="oBlur"/>
	<feFlood flood-color="rgb(0,0,0)" flood-opacity="1"/>
	<feComposite in2="oBlur" operator="in"/>
	<feMerge>
		<feMergeNode/>
		<feMergeNode in="SourceGraphic"/>
	</feMerge>
</filter>
<rect style="stroke: rgb(0,0,0); stroke-width: 3; stroke-dasharray: none; stroke-linecap: butt; stroke-dashoffset: 0; stroke-linejoin: miter; stroke-miterlimit: 4; is-custom-font: none; font-file-url: none; fill: rgb(0,0,0); fill-rule: nonzero; opacity: 0.28;filter: url(#SVGID_623);" vector-effect="non-scaling-stroke" x="-200" y="-75" rx="20" ry="20" width="400" height="150"/>
</g>
<g transform="matrix(3.8984 0 0 3.9281 356.5422 487.4224)" id="462132">
<filter id="SVGID_624" y="-30%" height="160%" x="-30%" width="160%">
	<feGaussianBlur in="SourceAlpha" stdDeviation="1"/>
	<feOffset dx="0" dy="0" result="oBlur"/>
	<feFlood flood-color="rgb(4,4,4)" flood-opacity="1"/>
	<feComposite in2="oBlur" operator="in"/>
	<feMerge>
		<feMergeNode/>
		<feMergeNode in="SourceGraphic"/>
	</feMerge>
</filter>
<path style="stroke: rgb(0,0,0); stroke-opacity: 0.94; stroke-width: 4; stroke-dasharray: none; stroke-linecap: butt; stroke-dashoffset: 0; stroke-linejoin: miter; stroke-miterlimit: 4; is-custom-font: none; font-file-url: none; fill: rgb(46,46,46); fill-opacity: 0.49; fill-rule: evenodd; opacity: 0.01;filter: url(#SVGID_624);" vector-effect="non-scaling-stroke" transform=" translate(-10, -10)" d="M 10 0 C 4.5 0 0 4.5 0 10 C 0 15.5 4.5 20 10 20 C 15.5 20 20 15.5 20 10 C 20 4.5 15.5 0 10 0 L 10 0 Z M 10 18 C 5.6 18 2 14.4 2 10 C 2 5.6 5.6 2 10 2 C 14.4 2 18 5.6 18 10 C 18 14.4 14.4 18 10 18 L 10 18 Z" stroke-linecap="round"/>
</g>
<g transform="matrix(3.8126 0 0 3.8126 358.0787 490.975)" id="286949">
<filter id="SVGID_625" y="-35%" height="170%" x="-35%" width="170%">
	<feGaussianBlur in="SourceAlpha" stdDeviation="1"/>
	<feOffset dx="1" dy="1" result="oBlur"/>
	<feFlood flood-color="rgb(4,4,4)" flood-opacity="1"/>
	<feComposite in2="oBlur" operator="in"/>
	<feMerge>
		<feMergeNode/>
		<feMergeNode in="SourceGraphic"/>
	</feMerge>
</filter>
<path style="stroke: rgb(0,0,0); stroke-width: 5; stroke-dasharray: none; stroke-linecap: butt; stroke-dashoffset: 0; stroke-linejoin: miter; stroke-miterlimit: 4; is-custom-font: none; font-file-url: none; fill: rgb(155,149,149); fill-opacity: 0.56; fill-rule: evenodd; opacity: 0;filter: url(#SVGID_625);" vector-effect="non-scaling-stroke" transform=" translate(-10, -10)" d="M 10 0 C 4.5 0 0 4.5 0 10 C 0 15.5 4.5 20 10 20 C 15.5 20 20 15.5 20 10 C 20 4.5 15.5 0 10 0 L 10 0 Z M 10 18 C 5.6 18 2 14.4 2 10 C 2 5.6 5.6 2 10 2 C 14.4 2 18 5.6 18 10 C 18 14.4 14.4 18 10 18 L 10 18 Z" stroke-linecap="round"/>
</g>
<g transform="matrix(0.1384 0 0 0.1393 362.9907 482.9259)" id="159294">
<filter id="SVGID_626" y="-21.87%" height="143.74%" x="-21.34%" width="142.68%">
	<feGaussianBlur in="SourceAlpha" stdDeviation="2"/>
	<feOffset dx="2" dy="2" result="oBlur"/>
	<feFlood flood-color="rgb(0,0,0)" flood-opacity="1"/>
	<feComposite in2="oBlur" operator="in"/>
	<feMerge>
		<feMergeNode/>
		<feMergeNode in="SourceGraphic"/>
	</feMerge>
</filter>
<path style="stroke: rgb(0,0,0); stroke-width: 3; stroke-dasharray: none; stroke-linecap: butt; stroke-dashoffset: 0; stroke-linejoin: miter; stroke-miterlimit: 4; is-custom-font: none; font-file-url: none; fill: rgb(22,130,2); fill-rule: nonzero; opacity: 0;filter: url(#SVGID_626);" vector-effect="non-scaling-stroke" transform=" translate(-256, -256)" d="M 480 128 c 0 8.188 -3.125 16.38 -9.375 22.62 l -256 256 C 208.4 412.9 200.2 416 192 416 s -16.38 -3.125 -22.62 -9.375 l -128 -128 C 35.13 272.4 32 264.2 32 256 c 0 -18.28 14.95 -32 32 -32 c 8.188 0 16.38 3.125 22.62 9.375 L 192 338.8 l 233.4 -233.4 C 431.6 99.13 439.8 96 448 96 C 465.1 96 480 109.7 480 128 z" stroke-linecap="round"/>
</g>
<g transform="matrix(2.855 0 0 2.7684 357.1584 485.7817)" id="217376">
<g style="" vector-effect="non-scaling-stroke">
		<g transform="matrix(1 0 0 1 0 1)">
<path style="stroke: none; stroke-width: 1; stroke-dasharray: none; stroke-linecap: butt; stroke-dashoffset: 0; stroke-linejoin: miter; stroke-miterlimit: 4; is-custom-font: none; font-file-url: none; fill: rgb(39,174,96); fill-rule: nonzero; opacity: 0;" transform=" translate(-12, -12)" d="m 22 12 c 0 5.523 -4.477 10 -10 10 c -5.5228 0 -10 -4.477 -10 -10 c 0 -5.5228 4.4772 -10 10 -10 c 5.523 0 10 4.4772 10 10 z" stroke-linecap="round"/>
</g>
		<g transform="matrix(1 0 0 1 0 0)">
<path style="stroke: none; stroke-width: 1; stroke-dasharray: none; stroke-linecap: butt; stroke-dashoffset: 0; stroke-linejoin: miter; stroke-miterlimit: 4; is-custom-font: none; font-file-url: none; fill: rgb(46,204,113); fill-rule: nonzero; opacity: 0;" transform=" translate(-12, -12)" d="m 22 12 c 0 5.523 -4.477 10 -10 10 c -5.5228 0 -10 -4.477 -10 -10 c 0 -5.5228 4.4772 -10 10 -10 c 5.523 0 10 4.4772 10 10 z" stroke-linecap="round"/>
</g>
		<g transform="matrix(1 0 0 1 -0.25 2.1)">
<path style="stroke: none; stroke-width: 1; stroke-dasharray: none; stroke-linecap: butt; stroke-dashoffset: 0; stroke-linejoin: miter; stroke-miterlimit: 4; is-custom-font: none; font-file-url: none; fill: rgb(39,174,96); fill-rule: nonzero; opacity: 0;" transform=" translate(-11.75, -1042.5)" d="m 16 1037.4 l -6 6 l -2.5 -2.5 l -2.125 2.1 l 2.5 2.5 l 2 2 l 0.125 0.1 l 8.125 -8.1 l -2.125 -2.1 z" stroke-linecap="round"/>
</g>
		<g transform="matrix(1 0 0 1 -0.25 1.1)">
<path style="stroke: none; stroke-width: 1; stroke-dasharray: none; stroke-linecap: butt; stroke-dashoffset: 0; stroke-linejoin: miter; stroke-miterlimit: 4; is-custom-font: none; font-file-url: none; fill: rgb(236,240,241); fill-rule: nonzero; opacity: 0;" transform=" translate(-11.75, -1041.5)" d="m 16 1036.4 l -6 6 l -2.5 -2.5 l -2.125 2.1 l 2.5 2.5 l 2 2 l 0.125 0.1 l 8.125 -8.1 l -2.125 -2.1 z" stroke-linecap="round"/>
</g>
</g>
</g>
</svg>